<svg class="main-svg" xmlns="http://www.w3.org/2000/svg" xmlns:xlink="http://www.w3.org/1999/xlink" width="650" height="450" style="" viewBox="0 0 650 450"><rect x="0" y="0" width="650" height="450" style="fill: rgb(255, 255, 255); fill-opacity: 1;"/><defs id="defs-33a615"><g class="clips"><clipPath id="clip33a615xyplot" class="plotclip"><rect width="468" height="320"/></clipPath><clipPath class="axesclip" id="clip33a615x"><rect x="80" y="0" width="468" height="450"/></clipPath><clipPath class="axesclip" id="clip33a615y"><rect x="0" y="50" width="650" height="320"/></clipPath><clipPath class="axesclip" id="clip33a615xy"><rect x="80" y="50" width="468" height="320"/></clipPath></g><g class="gradients"/><g class="patterns"/></defs><g class="bglayer"/><g class="layer-below"><g class="imagelayer"/><g class="shapelayer"/></g><g class="cartesianlayer"><g class="subplot xy"><g class="layer-subplot"><g class="shapelayer"/><g class="imagelayer"/></g><g class="minor-gridlayer"><g class="x"/><g class="y"/></g><g class="gridlayer"><g class="x"/><g class="y"><path class="ygrid crisp" transform="translate(0,362.92)" d="M80,0h468" style="stroke: rgb(238, 238, 238); stroke-opacity: 1; stroke-width: 1px;"/><path class="ygrid crisp" transform="translate(0,299.74)" d="M80,0h468" style="stroke: rgb(238, 238, 238); stroke-opacity: 1; stroke-width: 1px;"/><path class="ygrid crisp" transform="translate(0,236.56)" d="M80,0h468" style="stroke: rgb(238, 238, 238); stroke-opacity: 1; stroke-width: 1px;"/><path class="ygrid crisp" transform="translate(0,173.38)" d="M80,0h468" style="stroke: rgb(238, 238, 238); stroke-opacity: 1; stroke-width: 1px;"/><path class="ygrid crisp" transform="translate(0,110.2)" d="M80,0h468" style="stroke: rgb(238, 238, 238); stroke-opacity: 1; stroke-width: 1px;"/></g></g><g class="zerolinelayer"/><path class="xlines-below"/><path class="ylines-below"/><g class="overlines-below"/><g class="xaxislayer-below"/><g class="yaxislayer-below"/><g class="overaxes-below"/><g class="plot" transform="translate(80,50)" clip-path="url(#clip33a615xyplot)"><g class="boxlayer mlayer"><g class="trace boxes" style="opacity: 1;"><path class="box" d="M75.3,173.83H125.63M75.3,182.63H125.63V167.74H75.3ZM100.47,182.63V185.46M100.47,167.74V167.74M87.88,185.46H113.05M87.88,167.74H113.05" style="vector-effect: non-scaling-stroke; stroke-width: 2px; stroke: rgb(31, 119, 180); stroke-opacity: 1; fill: rgb(31, 119, 180); fill-opacity: 0.5;"/><path class="box" d="M280.75,261.64H331.09M280.75,272.19H331.09V258.8H280.75ZM305.92,272.19V272.19M305.92,258.8V251.73M293.34,272.19H318.5M293.34,251.73H318.5" style="vector-effect: non-scaling-stroke; stroke-width: 2px; stroke: rgb(31, 119, 180); stroke-opacity: 1; fill: rgb(31, 119, 180); fill-opacity: 0.5;"/><g class="points"><path class="point" transform="translate(66.63,185.46)" d="M3,0A3,3 0 1,1 0,-3A3,3 0 0,1 3,0Z" style="opacity: 1; stroke-width: 0px; fill: rgb(31, 119, 180); fill-opacity: 1;"/><path class="point" transform="translate(57.9,182.63)" d="M3,0A3,3 0 1,1 0,-3A3,3 0 0,1 3,0Z" style="opacity: 1; stroke-width: 0px; fill: rgb(31, 119, 180); fill-opacity: 1;"/><path class="point" transform="translate(68.57,173.83)" d="M3,0A3,3 0 1,1 0,-3A3,3 0 0,1 3,0Z" style="opacity: 1; stroke-width: 0px; fill: rgb(31, 119, 180); fill-opacity: 1;"/><path class="point" transform="translate(56.33,167.74)" d="M3,0A3,3 0 1,1 0,-3A3,3 0 0,1 3,0Z" style="opacity: 1; stroke-width: 0px; fill: rgb(31, 119, 180); fill-opacity: 1;"/><path class="point" transform="translate(60.85,133.23)" d="M3,0A3,3 0 1,1 0,-3A3,3 0 0,1 3,0Z" style="opacity: 1; stroke-width: 0px; fill: rgb(31, 119, 180); fill-opacity: 1;"/></g><g class="points"><path class="point" transform="translate(272.13,298.62)" d="M3,0A3,3 0 1,1 0,-3A3,3 0 0,1 3,0Z" style="opacity: 1; stroke-width: 0px; fill: rgb(31, 119, 180); fill-opacity: 1;"/><path class="point" transform="translate(267.89,272.19)" d="M3,0A3,3 0 1,1 0,-3A3,3 0 0,1 3,0Z" style="opacity: 1; stroke-width: 0px; fill: rgb(31, 119, 180); fill-opacity: 1;"/><path class="point" transform="translate(270.36,261.64)" d="M3,0A3,3 0 1,1 0,-3A3,3 0 0,1 3,0Z" style="opacity: 1; stroke-width: 0px; fill: rgb(31, 119, 180); fill-opacity: 1;"/><path class="point" transform="translate(265.76,258.8)" d="M3,0A3,3 0 1,1 0,-3A3,3 0 0,1 3,0Z" style="opacity: 1; stroke-width: 0px; fill: rgb(31, 119, 180); fill-opacity: 1;"/><path class="point" transform="translate(262.63,251.73)" d="M3,0A3,3 0 1,1 0,-3A3,3 0 0,1 3,0Z" style="opacity: 1; stroke-width: 0px; fill: rgb(31, 119, 180); fill-opacity: 1;"/></g><path class="mean" d="M75.3,168.58H125.63m0,0L100.47,187.34L75.3,168.58L100.47,149.82Z" style="fill: none; vector-effect: non-scaling-stroke; stroke-width: 2; stroke-dasharray: 4px, 2px; stroke: rgb(31, 119, 180); stroke-opacity: 1;"/><path class="mean" d="M280.75,268.59H331.09m0,0L305.92,284.98L280.75,268.59L305.92,252.21Z" style="fill: none; vector-effect: non-scaling-stroke; stroke-width: 2; stroke-dasharray: 4px, 2px; stroke: rgb(31, 119, 180); stroke-opacity: 1;"/></g><g class="trace boxes" style="opacity: 1;"><path class="box" d="M147.21,50.57H197.54M147.21,53.12H197.54V47.59H147.21ZM172.37,53.12V53.12M172.37,47.59V47.59M159.79,53.12H184.96M159.79,47.59H184.96" style="vector-effect: non-scaling-stroke; stroke-width: 2px; stroke: rgb(255, 127, 14); stroke-opacity: 1; fill: rgb(255, 127, 14); fill-opacity: 0.5;"/><path class="box" d="M352.66,290.9H403M352.66,297.11H403V269.05H352.66ZM377.83,297.11V304M377.83,269.05V249.49M365.24,304H390.41M365.24,249.49H390.41" style="vector-effect: non-scaling-stroke; stroke-width: 2px; stroke: rgb(255, 127, 14); stroke-opacity: 1; fill: rgb(255, 127, 14); fill-opacity: 0.5;"/><g class="points"><path class="point" transform="translate(138.54,70.89)" d="M3,0A3,3 0 1,1 0,-3A3,3 0 0,1 3,0Z" style="opacity: 1; stroke-width: 0px; fill: rgb(255, 127, 14); fill-opacity: 1;"/><path class="point" transform="translate(129.81,53.12)" d="M3,0A3,3 0 1,1 0,-3A3,3 0 0,1 3,0Z" style="opacity: 1; stroke-width: 0px; fill: rgb(255, 127, 14); fill-opacity: 1;"/><path class="point" transform="translate(140.48,50.57)" d="M3,0A3,3 0 1,1 0,-3A3,3 0 0,1 3,0Z" style="opacity: 1; stroke-width: 0px; fill: rgb(255, 127, 14); fill-opacity: 1;"/><path class="point" transform="translate(128.24,47.59)" d="M3,0A3,3 0 1,1 0,-3A3,3 0 0,1 3,0Z" style="opacity: 1; stroke-width: 0px; fill: rgb(255, 127, 14); fill-opacity: 1;"/><path class="point" transform="translate(132.76,16)" d="M3,0A3,3 0 1,1 0,-3A3,3 0 0,1 3,0Z" style="opacity: 1; stroke-width: 0px; fill: rgb(255, 127, 14); fill-opacity: 1;"/></g><g class="points"><path class="point" transform="translate(344.04,304)" d="M3,0A3,3 0 1,1 0,-3A3,3 0 0,1 3,0Z" style="opacity: 1; stroke-width: 0px; fill: rgb(255, 127, 14); fill-opacity: 1;"/><path class="point" transform="translate(339.79,297.11)" d="M3,0A3,3 0 1,1 0,-3A3,3 0 0,1 3,0Z" style="opacity: 1; stroke-width: 0px; fill: rgb(255, 127, 14); fill-opacity: 1;"/><path class="point" transform="translate(342.26,290.9)" d="M3,0A3,3 0 1,1 0,-3A3,3 0 0,1 3,0Z" style="opacity: 1; stroke-width: 0px; fill: rgb(255, 127, 14); fill-opacity: 1;"/><path class="point" transform="translate(337.67,269.05)" d="M3,0A3,3 0 1,1 0,-3A3,3 0 0,1 3,0Z" style="opacity: 1; stroke-width: 0px; fill: rgb(255, 127, 14); fill-opacity: 1;"/><path class="point" transform="translate(334.54,249.49)" d="M3,0A3,3 0 1,1 0,-3A3,3 0 0,1 3,0Z" style="opacity: 1; stroke-width: 0px; fill: rgb(255, 127, 14); fill-opacity: 1;"/></g><path class="mean" d="M147.21,47.63H197.54m0,0L172.37,65.41L147.21,47.63L172.37,29.86Z" style="fill: none; vector-effect: non-scaling-stroke; stroke-width: 2; stroke-dasharray: 4px, 2px; stroke: rgb(255, 127, 14); stroke-opacity: 1;"/><path class="mean" d="M352.66,282.11H403m0,0L377.83,302.19L352.66,282.11L377.83,262.03Z" style="fill: none; vector-effect: non-scaling-stroke; stroke-width: 2; stroke-dasharray: 4px, 2px; stroke: rgb(255, 127, 14); stroke-opacity: 1;"/></g></g></g><g class="overplot"/><path class="xlines-above crisp" d="M0,0" style="fill: none;"/><path class="ylines-above crisp" d="M0,0" style="fill: none;"/><g class="overlines-above"/><g class="xaxislayer-above"><g class="xtick"><text text-anchor="middle" x="0" y="386" transform="translate(216.42,0)" style="font-family: Arial; font-size: 15px; fill: rgb(0, 0, 0); fill-opacity: 1; white-space: pre; opacity: 1;">x86-64</text></g><g class="xtick"><text text-anchor="middle" x="0" y="386" transform="translate(421.87,0)" style="font-family: Arial; font-size: 15px; fill: rgb(0, 0, 0); fill-opacity: 1; white-space: pre; opacity: 1;">x86-64-v3</text></g></g><g class="yaxislayer-above"><g class="ytick"><text text-anchor="end" x="79" y="5.25" transform="translate(0,362.92)" style="font-family: Arial; font-size: 15px; fill: rgb(0, 0, 0); fill-opacity: 1; white-space: pre; opacity: 1;">79</text></g><g class="ytick"><text text-anchor="end" x="79" y="5.25" style="font-family: Arial; font-size: 15px; fill: rgb(0, 0, 0); fill-opacity: 1; white-space: pre; opacity: 1;" transform="translate(0,299.74)">79.2</text></g><g class="ytick"><text text-anchor="end" x="79" y="5.25" style="font-family: Arial; font-size: 15px; fill: rgb(0, 0, 0); fill-opacity: 1; white-space: pre; opacity: 1;" transform="translate(0,236.56)">79.4</text></g><g class="ytick"><text text-anchor="end" x="79" y="5.25" style="font-family: Arial; font-size: 15px; fill: rgb(0, 0, 0); fill-opacity: 1; white-space: pre; opacity: 1;" transform="translate(0,173.38)">79.6</text></g><g class="ytick"><text text-anchor="end" x="79" y="5.25" style="font-family: Arial; font-size: 15px; fill: rgb(0, 0, 0); fill-opacity: 1; white-space: pre; opacity: 1;" transform="translate(0,110.2)">79.8</text></g></g><g class="overaxes-above"/></g></g><g class="polarlayer"/><g class="smithlayer"/><g class="ternarylayer"/><g class="geolayer"/><g class="funnelarealayer"/><g class="pielayer"/><g class="iciclelayer"/><g class="treemaplayer"/><g class="sunburstlayer"/><g class="glimages"/><defs id="topdefs-33a615"><g class="clips"/><clipPath id="legend33a615"><rect width="81" height="55" x="0" y="0"/></clipPath></defs><g class="layer-above"><g class="imagelayer"/><g class="shapelayer"/></g><g class="infolayer"><g class="legend" pointer-events="all" transform="translate(557.36,50)"><rect class="bg" shape-rendering="crispEdges" style="stroke: rgb(68, 68, 68); stroke-opacity: 1; fill: rgb(255, 255, 255); fill-opacity: 1; stroke-width: 0px;" width="81" height="55" x="0" y="0"/><g class="scrollbox" transform="" clip-path="url(#legend33a615)"><g class="groups"><g class="traces" transform="translate(0,16.25)" style="opacity: 1;"><text class="legendtext" text-anchor="start" x="40" y="5.85" style="font-family: Arial; font-size: 15px; fill: rgb(0, 0, 0); fill-opacity: 1; white-space: pre;">gcc</text><g class="layers" style="opacity: 1;"><g class="legendfill"/><g class="legendlines"/><g class="legendsymbols"><g class="legendpoints"><path class="legendbox" d="M6,6H-6V-6H6Z" transform="translate(20,0)" style="stroke-width: 2px; fill: rgb(31, 119, 180); fill-opacity: 0.5; stroke: rgb(31, 119, 180); stroke-opacity: 1;"/></g></g></g><rect class="legendtoggle" x="0" y="-11.25" width="75.83871078491211" height="22.5" style="fill: rgb(0, 0, 0); fill-opacity: 0;"/></g><g class="traces" transform="translate(0,38.75)" style="opacity: 1;"><text class="legendtext" text-anchor="start" x="40" y="5.85" style="font-family: Arial; font-size: 15px; fill: rgb(0, 0, 0); fill-opacity: 1; white-space: pre;">clang</text><g class="layers" style="opacity: 1;"><g class="legendfill"/><g class="legendlines"/><g class="legendsymbols"><g class="legendpoints"><path class="legendbox" d="M6,6H-6V-6H6Z" transform="translate(20,0)" style="stroke-width: 2px; fill: rgb(255, 127, 14); fill-opacity: 0.5; stroke: rgb(255, 127, 14); stroke-opacity: 1;"/></g></g></g><rect class="legendtoggle" x="0" y="-11.25" width="75.83871078491211" height="22.5" style="fill: rgb(0, 0, 0); fill-opacity: 0;"/></g></g></g><rect class="scrollbar" rx="20" ry="3" width="0" height="0" style="fill: rgb(128, 139, 164); fill-opacity: 1;" x="0" y="0"/></g><g class="g-gtitle"><text class="gtitle" x="325" y="25" text-anchor="middle" dy="0em" style="font-family: Arial; font-size: 21px; fill: rgb(0, 0, 0); opacity: 1; font-weight: normal; white-space: pre;">X5950</text></g><g class="g-xtitle"><text class="xtitle" x="314" y="434" text-anchor="middle" style="font-family: Arial; font-size: 18px; fill: rgb(0, 0, 0); opacity: 1; font-weight: normal; white-space: pre;">Processor family settings</text></g><g class="g-ytitle"><text class="ytitle" transform="rotate(-90,34,210)" x="34" y="210" text-anchor="middle" style="font-family: Arial; font-size: 18px; fill: rgb(0, 0, 0); opacity: 1; font-weight: normal; white-space: pre;">Compile time(sec)</text></g></g></svg>